<?xml version="1.0" standalone="no"?>
<!DOCTYPE svg PUBLIC "-//W3C//DTD SVG 20010904//EN"
 "http://www.w3.org/TR/2001/REC-SVG-20010904/DTD/svg10.dtd">
<svg version="1.0" xmlns="http://www.w3.org/2000/svg"
 width="450.000000pt" height="450.000000pt" viewBox="0 0 450.000000 450.000000"
 preserveAspectRatio="xMidYMid meet">
<metadata>
Created by potrace 1.11, written by Peter Selinger 2001-2013
</metadata>
<g transform="translate(0.000000,450.000000) scale(0.100000,-0.100000)"
fill="#000000" stroke="none">
<path d="M2105 3735 c-111 -25 -156 -65 -201 -175 -42 -105 -35 -247 18 -360
12 -25 24 -47 28 -50 3 -3 21 -24 39 -48 33 -43 33 -43 20 -90 -7 -26 -13 -50
-11 -54 4 -14 -75 -71 -101 -74 -15 -1 -60 12 -100 31 -116 53 -162 58 -295
35 -53 -10 -75 -10 -85 -2 -18 16 -77 25 -167 27 -87 1 -145 -11 -179 -37 -13
-10 -34 -18 -46 -18 -21 0 -22 5 -24 78 -1 42 -3 106 -4 142 -2 63 3 103 18
145 17 48 59 124 82 149 22 24 29 26 66 20 60 -10 88 -6 109 13 12 11 34 17
58 16 37 -2 42 2 71 44 37 54 36 56 -50 153 l-59 64 -58 -18 c-57 -18 -184
-78 -252 -121 -25 -15 -45 -45 -82 -120 -27 -55 -74 -134 -106 -175 -83 -110
-127 -201 -171 -355 -67 -240 -57 -269 117 -330 41 -15 129 -55 195 -90 66
-35 148 -73 182 -84 93 -31 228 -45 288 -29 37 10 49 -2 52 -49 6 -118 37
-176 168 -313 124 -130 155 -185 180 -315 6 -34 8 -223 1 -233 -2 -4 -7 -34
-10 -67 -4 -33 -9 -73 -11 -90 -5 -36 15 -60 65 -82 49 -21 190 -62 285 -82
79 -17 81 -17 175 6 52 13 104 26 114 28 113 26 212 78 209 110 0 11 -4 43 -7
70 -22 189 -24 235 -13 325 14 125 57 206 163 312 131 129 181 214 185 315 3
66 6 72 37 66 146 -26 276 5 496 117 61 31 122 60 136 65 14 4 27 8 30 9 3 1
16 6 30 10 96 31 150 87 144 149 -9 90 -49 232 -96 344 -32 77 -67 133 -135
223 -23 30 -62 98 -87 150 -50 103 -48 101 -191 176 -87 46 -184 78 -206 69
-17 -7 -123 -139 -127 -158 -1 -7 11 -32 28 -56 27 -36 36 -42 58 -38 17 3 39
-2 58 -14 35 -21 74 -26 122 -15 42 10 69 -13 112 -95 43 -83 63 -178 54 -253
-4 -34 -8 -89 -8 -123 1 -58 -1 -63 -21 -63 -12 0 -33 8 -46 18 -40 31 -79 39
-179 36 -108 -2 -128 -6 -164 -29 -21 -14 -31 -15 -61 -5 -35 11 -158 15 -205
5 -69 -13 -89 -19 -137 -41 -29 -12 -62 -21 -72 -19 -39 7 -100 57 -110 89
-26 84 -25 88 33 174 31 45 56 84 56 87 0 3 2 10 4 17 53 177 42 270 -42 381
-41 53 -84 84 -140 99 -54 15 -170 17 -227 3z"/>
<path d="M2158 954 c-2 -2 -33 -10 -69 -18 -123 -28 -174 -44 -229 -68 -73
-33 -79 -42 -71 -108 1 -6 148 -10 420 -10 l419 0 4 29 c8 53 -12 70 -127 109
-131 45 -331 83 -347 66z"/>
</g>
</svg>
